<svg xmlns:dc="http://purl.org/dc/elements/1.1/" xmlns:cc="http://creativecommons.org/ns#" xmlns:rdf="http://www.w3.org/1999/02/22-rdf-syntax-ns#" xmlns:svg="http://www.w3.org/2000/svg" xmlns="http://www.w3.org/2000/svg" xmlns:sodipodi="http://sodipodi.sourceforge.net/DTD/sodipodi-0.dtd" xmlns:inkscape="http://www.inkscape.org/namespaces/inkscape" version="1.1" x="0px" y="0px" width="143" height="25" viewBox="1871 164.882 143 25.000006" enable-background="new 1871 164.882 100 60" xml:space="preserve"><style>
	.style0{
		fill:	#ffffff;
	}
</style><metadata><rdf:RDF><cc:Work rdf:about=""><dc:format>image/svg+xml</dc:format><dc:type rdf:resource="http://purl.org/dc/dcmitype/StillImage"/><dc:title/></cc:Work></rdf:RDF></metadata><defs/>
<path d="m 1871 164.9 h 8.3 v 4.2 h -4.2 v 16.7 h 4.2 v 4.2 H 1871 V 164.9 z" class="style0"/><path d="m 1896 164.9 h -8.3 v 4.2 h 4.2 v 16.7 h -4.2 v 4.2 H 1896 V 164.9 z" class="style0"/><path d="m 1912.5 174.5 c -1.3 0 -2.3 0.4 -3.1 1.2 -0.7 0.8 -1.1 2 -1.1 3.4 0 1.4 0.4 2.6 1.2 3.4 0.8 0.8 1.8 1.3 3 1.3 1 0 2 -0.3 3 -0.8 l 0.4 1.3 c -1.1 0.5 -2.3 0.8 -3.5 0.8 -1.7 0 -3.1 -0.5 -4.2 -1.6 -1.1 -1.1 -1.6 -2.6 -1.6 -4.4 0 -1.9 0.5 -3.4 1.5 -4.4 1 -1.1 2.4 -1.6 4.3 -1.6 1.2 0 2.4 0.3 3.5 0.8 l -0.4 1.4 c -1 -0.5 -2 -0.8 -3 -0.8" class="style0"/><path d="m 1925.6 175.7 c -0.7 -0.8 -1.6 -1.3 -2.8 -1.3 -1.2 0 -2.1 0.4 -2.8 1.3 -0.7 0.8 -1 2 -1 3.4 0 1.5 0.3 2.6 1 3.5 0.7 0.8 1.6 1.2 2.8 1.2 1.2 0 2.1 -0.4 2.8 -1.2 0.7 -0.8 1 -2 1 -3.5 0 -1.5 -0.3 -2.6 -1 -3.4 m 1.2 7.8 c -1 1.1 -2.3 1.6 -4 1.6 -1.7 0 -3 -0.5 -4 -1.6 -1 -1.1 -1.5 -2.6 -1.5 -4.4 0 -1.8 0.5 -3.3 1.5 -4.4 1 -1.1 2.3 -1.6 4 -1.6 1.7 0 3 0.5 4 1.6 1 1.1 1.5 2.6 1.5 4.4 0 1.8 -0.5 3.3 -1.5 4.4" class="style0"/><path d="m 1930 173.4 h 1.6 l 0 2.1 h 0 c 0.4 -0.7 1 -1.3 1.7 -1.7 0.7 -0.4 1.4 -0.6 2.2 -0.6 1.3 0 2.3 0.4 2.9 1.2 0.6 0.8 1 2.1 1 3.8 v 6.8 h -1.6 v -6.6 c 0 -1.4 -0.2 -2.4 -0.6 -3 -0.4 -0.6 -1.1 -0.8 -2.1 -0.8 -0.9 0 -1.7 0.4 -2.4 1.3 -0.7 0.8 -1 1.8 -1 3 v 6.2 h -1.6 v -11.6" class="style0"/><path d="m 1941.9 173.4 h 1.6 l 0 2.1 h 0 c 0.4 -0.7 1 -1.3 1.7 -1.7 0.7 -0.4 1.4 -0.6 2.2 -0.6 1.3 0 2.3 0.4 2.9 1.2 0.6 0.8 1 2.1 1 3.8 v 6.8 h -1.6 v -6.6 c 0 -1.4 -0.2 -2.4 -0.6 -3 -0.4 -0.6 -1.1 -0.8 -2.1 -0.8 -0.9 0 -1.7 0.4 -2.4 1.3 -0.7 0.8 -1.1 1.8 -1.1 3 v 6.2 h -1.6 v -11.6" class="style0"/><path d="m 1955.1 179.8 c 0 1.3 0.4 2.3 1.1 3 0.7 0.7 1.7 1.1 2.9 1.1 1.2 0 2.3 -0.3 3.4 -0.9 l 0.4 1.3 c -1.3 0.6 -2.6 0.9 -4 0.9 -1.7 0 -3 -0.5 -4 -1.6 -1 -1.1 -1.5 -2.6 -1.5 -4.4 0 -1.9 0.5 -3.4 1.4 -4.4 1 -1.1 2.3 -1.6 3.9 -1.6 1.6 0 2.9 0.5 3.7 1.5 0.9 1 1.3 2.5 1.3 4.4 0 0.2 -0 0.4 -0 0.7 h -8.7 m 0 -1.3 h 7.1 c -0 -1.3 -0.3 -2.3 -0.9 -3 -0.6 -0.7 -1.5 -1.1 -2.5 -1.1 -1.1 0 -2 0.4 -2.7 1.1 -0.7 0.7 -1 1.7 -1 3" class="style0"/><path d="m 1971.6 174.5 c -1.3 0 -2.3 0.4 -3.1 1.2 -0.7 0.8 -1.1 2 -1.1 3.4 0 1.4 0.4 2.6 1.2 3.4 0.8 0.8 1.8 1.3 3 1.3 1 0 2 -0.3 3 -0.8 l 0.4 1.3 c -1.1 0.5 -2.3 0.8 -3.5 0.8 -1.7 0 -3.1 -0.5 -4.2 -1.6 -1.1 -1.1 -1.6 -2.6 -1.6 -4.4 0 -1.9 0.5 -3.4 1.5 -4.4 1 -1.1 2.4 -1.6 4.3 -1.6 1.2 0 2.4 0.3 3.5 0.8 l -0.4 1.4 c -1 -0.5 -2 -0.8 -3 -0.8" class="style0"/><path d="m 1985.4 169.5 v 1.6 h 1.7 v -1.6 h -1.7 z m -6.8 0 v 4.2 h -1.4 v 1.3 h 1.4 v 6.4 c 0 1.3 0.3 2.3 0.8 2.8 0.5 0.5 1.2 0.8 2.4 0.8 0.9 0 1.2 0 1.9 -0.1 l 0 -1.3 c -0.6 0.1 -1 0 -1.7 0 -0.8 0 -1.1 -0.2 -1.3 -0.5 -0.3 -0.4 -0.4 -1.1 -0.4 -2.1 v -6.1 h 5.1 v 10 h 1.7 v -11.4 l -6.8 0 v -4.2 h -1.7 z" class="style0"/><path d="m 1994.3 174.5 c -1.3 0 -2.3 0.4 -3.1 1.2 -0.7 0.8 -1.1 2 -1.1 3.4 0 1.4 0.4 2.6 1.2 3.4 0.8 0.8 1.8 1.3 3 1.3 1 0 2 -0.3 3 -0.8 l 0.4 1.3 c -1.1 0.5 -2.3 0.8 -3.5 0.8 -1.7 0 -3.1 -0.5 -4.2 -1.6 -1.1 -1.1 -1.6 -2.6 -1.6 -4.4 0 -1.9 0.5 -3.4 1.5 -4.4 1 -1.1 2.4 -1.6 4.3 -1.6 1.2 0 2.4 0.3 3.5 0.8 l -0.4 1.4 c -1 -0.5 -2 -0.8 -3 -0.8" class="style0"/><path d="m 2004.5 173.2 c 1.6 0 2.8 0.3 3.5 1 0.7 0.7 1.1 1.8 1.1 3.3 v 4.4 c 0 1.1 0.1 2.1 0.3 3.1 h -1.6 c -0.1 -0.7 -0.2 -1.4 -0.2 -2.1 h -0 c -0.4 0.7 -1 1.3 -1.7 1.7 -0.8 0.4 -1.6 0.6 -2.6 0.6 -1.1 0 -1.9 -0.3 -2.6 -0.9 -0.6 -0.6 -1 -1.4 -1 -2.5 0 -1.3 0.6 -2.3 1.7 -3.1 1.1 -0.8 2.7 -1.1 4.8 -1.1 h 1.2 v -0.1 c 0 -1.1 -0.2 -1.9 -0.6 -2.3 -0.4 -0.4 -1.2 -0.7 -2.3 -0.7 -1.4 0 -2.7 0.3 -3.9 1 l -0.3 -1.3 c 1.2 -0.7 2.6 -1.1 4.2 -1.1 m -3.2 8.6 c 0 0.7 0.2 1.2 0.6 1.6 0.4 0.4 1 0.6 1.7 0.6 1 0 1.9 -0.4 2.7 -1.1 0.8 -0.7 1.1 -1.7 1.1 -2.7 v -1.3 h -1.2 c -1.6 0 -2.8 0.3 -3.6 0.8 -0.8 0.5 -1.3 1.2 -1.3 2.1" class="style0"/><path d="M 2012.3 185 V 169.5 H 2014 v 15.4 h -1.7" class="style0"/>
</svg>
